<?xml version="1.0" encoding="UTF-8" standalone="no"?>
<svg
   xmlns:dc="http://purl.org/dc/elements/1.1/"
   xmlns:cc="http://creativecommons.org/ns#"
   xmlns:rdf="http://www.w3.org/1999/02/22-rdf-syntax-ns#"
   xmlns:svg="http://www.w3.org/2000/svg"
   xmlns="http://www.w3.org/2000/svg"
   xmlns:sodipodi="http://sodipodi.sourceforge.net/DTD/sodipodi-0.dtd"
   xmlns:inkscape="http://www.inkscape.org/namespaces/inkscape"
   version="1.1"
   x="0px"
   y="0px"
   viewBox="0 0 100 125"
   style="enable-background:new 0 0 100 100;"
   xml:space="preserve"
   id="svg14"
   sodipodi:docname="jf.svg"
   inkscape:version="0.92.3 (2405546, 2018-03-11)"><metadata
     id="metadata20"><rdf:RDF><cc:Work
         rdf:about=""><dc:format>image/svg+xml</dc:format><dc:type
           rdf:resource="http://purl.org/dc/dcmitype/StillImage" /><dc:title></dc:title></cc:Work></rdf:RDF></metadata><defs
     id="defs18" /><sodipodi:namedview
     pagecolor="#ffffff"
     bordercolor="#666666"
     borderopacity="1"
     objecttolerance="10"
     gridtolerance="10"
     guidetolerance="10"
     inkscape:pageopacity="0"
     inkscape:pageshadow="2"
     inkscape:window-width="1366"
     inkscape:window-height="697"
     id="namedview16"
     showgrid="false"
     showguides="true"
     inkscape:zoom="3.776"
     inkscape:cx="5.3920082"
     inkscape:cy="61.011684"
     inkscape:window-x="-8"
     inkscape:window-y="-8"
     inkscape:window-maximized="1"
     inkscape:current-layer="svg14" /><g
     id="g8"><g
       id="g6"><path
         d="M 50,0 C 22.39,0 0,22.39 0,50 0,77.61 22.39,100 50,100 77.61,100 100,77.61 100,50 100,22.39 77.61,0 50,0 Z m 31.12,79.1 -1.213785,-1.166969 c -0.581096,-0.558683 -1.5,-0.57 -2.08,0 -0.57,0.57 -0.57,1.5 0,2.08 L 79.04,81.18 c -3.67,3.42 -7.85,6.14 -12.46,8.09 -4.8,2.03 -9.88,3.15 -15.12,3.32 v -8.598305 c 0,-0.81 -0.66,-1.47 -1.47,-1.47 -0.81,0 -1.47,0.66 -1.47,1.47 V 92.59 C 43.28,92.41 38.2,91.3 33.4,89.27 28.79,87.32 24.6,84.6 20.94,81.18 l 1.869207,-1.822391 c 0.577182,-0.562726 0.57,-1.5 0,-2.08 -0.57,-0.57 -1.5,-0.57 -2.08,0 L 18.86,79.1 C 15.42,75.42 12.68,71.22 10.72,66.58 8.71,61.8 7.6,56.74 7.42,51.52 l 8.648305,-0.06621 c 0.809976,-0.0062 1.47,-0.66 1.47,-1.47 0,-0.81 -0.660024,-1.4762 -1.47,-1.47 L 7.42,48.58 c 0.17,-5.25 1.28,-10.35 3.32,-15.17 1.95,-4.61 4.67,-8.8 8.09,-12.46 l 1.413072,1.280657 c 0.597298,0.541327 1.5,0.57 2.08,0 0.57,-0.57 0.57,-1.5 0,-2.08 L 20.9,18.86 c 3.68,-3.44 7.88,-6.18 12.52,-8.14 4.8,-2.03 9.88,-3.15 15.12,-3.32 v 8.499682 c 0,0.81 0.66,1.47 1.47,1.47 0.81,0 1.47,-0.66 1.47,-1.47 V 7.41 c 5.24,0.18 10.32,1.29 15.12,3.32 4.63,1.96 8.84,4.7 12.52,8.14 l -1.226969,1.086521 c -0.603493,0.534413 -0.57,1.5 0,2.08 0.57,0.57 1.5,0.57 2.08,0 L 81.19,20.96 c 3.42,3.67 6.14,7.85 8.09,12.46 2.04,4.82 3.15,9.91 3.32,15.17 h -8.78072 c -0.81,0 -1.47,0.66 -1.47,1.47 0,0.81 0.66,1.47 1.47,1.47 H 92.6 c -0.18,5.22 -1.29,10.28 -3.32,15.07 -1.97,4.62 -4.71,8.82 -8.16,12.5 z"
         id="path2"
         inkscape:connector-curvature="0"
         sodipodi:nodetypes="ssssscscccccssscccscccccssscccscccccssscccscccccsssccc" /></g></g><circle
     id="path3727"
     cx="50.14632"
     cy="50.10273"
     style="display:none;fill:#ffffff;fill-opacity:1;stroke:#000000;stroke-width:1.60537076;stroke-opacity:1"
     r="19.197315" /><g
     id="g3798"
     transform="rotate(45,50,50)"><path
       sodipodi:nodetypes="cccccccccccccccccccccccccccc"
       id="path4"
       d="M 57.69,50 57.7,49.98 H 57.69 L 50,23.51 v -0.02 0.01 -0.01 0.02 L 42.32,49.98 H 42.31 V 50 l -0.01,0.02 h 0.01 L 50,76.49 v 0.02 -0.01 0.01 -0.02 l 7.68,-26.47 h 0.01 z M 50,67.62 v 0 0 l -4.929661,-17.411059 4.863453,0.06621 h 5.128285 z"
       inkscape:connector-curvature="0" /><g
       id="g89"><path
         style="fill:#ffffff;stroke-width:0.95866936"
         d="m 52.562897,50.265535 c -2.644185,-0.0011 -2.677079,-0.0034 -5,-0.01655 0,-1.380712 1.119288,-2.5 2.5,-2.5 1.380712,0 2.5,1.13584 2.5,2.516552 z"
         id="path52"
         inkscape:connector-curvature="0"
         sodipodi:nodetypes="ccsc" /><path
         style="fill:#000000;stroke-width:0.95866936"
         d="m 52.562897,50.265537 c -2.644185,0.0011 -2.677079,-0.0297 -5,-0.01655 0,1.380712 1.119288,2.5 2.5,2.5 1.380712,0 2.5,-1.102736 2.5,-2.483448 z"
         id="path52-9"
         inkscape:connector-curvature="0"
         sodipodi:nodetypes="ccscc" /></g></g><text
     xml:space="preserve"
     style="font-style:normal;font-variant:normal;font-weight:normal;font-stretch:normal;font-size:40px;line-height:1.25;font-family:'Californian FB';-inkscape-font-specification:'Californian FB';letter-spacing:0px;word-spacing:0px;fill:#000000;fill-opacity:1;stroke:none"
     x="32.309322"
     y="37.076271"
     id="text3813"><tspan
       sodipodi:role="line"
       id="tspan3811"
       x="32.309322"
       y="37.076271"
       style="font-style:normal;font-variant:normal;font-weight:bold;font-stretch:normal;font-size:21.33333397px;font-family:'Californian FB';-inkscape-font-specification:'Californian FB Bold'">J</tspan></text>
<text
     xml:space="preserve"
     style="font-style:normal;font-variant:normal;font-weight:normal;font-stretch:normal;font-size:40px;line-height:1.25;font-family:'Californian FB';-inkscape-font-specification:'Californian FB';letter-spacing:0px;word-spacing:0px;fill:#000000;fill-opacity:1;stroke:none"
     x="61.705509"
     y="73.358047"
     id="text3817"><tspan
       sodipodi:role="line"
       id="tspan3815"
       x="61.705509"
       y="73.358047"
       style="font-style:normal;font-variant:normal;font-weight:bold;font-stretch:normal;font-size:21.33333397px;font-family:'Californian FB';-inkscape-font-specification:'Californian FB Bold'">F</tspan></text>
</svg>